STARTFONT 2.1
FONT -Scott-Editor-Medium-I-Normal--14-140-75-75-m-90-iso8859-1
SIZE 14 75 75
FONTBOUNDINGBOX 9 16 0 -3

STARTPROPERTIES 30
FOUNDRY "Scott"
FAMILY_NAME "Editor"
WEIGHT_NAME "Medium"
SLANT "I"
SETWIDTH_NAME "Normal"
ADD_STYLE_NAME ""
PIXEL_SIZE 14
POINT_SIZE 140
RESOLUTION_X 75
RESOLUTION_Y 75
SPACING "M"
AVERAGE_WIDTH 90
CHARSET_REGISTRY "ISO8859"
CHARSET_ENCODING "1"
CAP_HEIGHT 9
X_HEIGHT 7
FACE_NAME "Editor-Italics"
COPYRIGHT "Copyright (c) IBM Corporation 1990,1991. IBM Courier is a Trademark of the IBM Corporation.  sm: modified for use with emacs"
NOTICE "No mark"
RELATIVE_SETWIDTH 50
RELATIVE_WEIGHT 50
CHARSET_COLLECTIONS "ASCII ISO8859-1 ADOBE-STANDARD"
FULL_NAME "Editor"
WEIGHT 10
RESOLUTION 103
QUAD_WIDTH 9
DEFAULT_CHAR 32
FONT_ASCENT 12
FONT_DESCENT 4
_XMBDFED_INFO "Edited with xmbdfed 4.5."
ENDPROPERTIES

CHARS 192

STARTCHAR C000
ENCODING 0
SWIDTH 617 0
DWIDTH 9 0
BBX 0 0 0 0
BITMAP
ENDCHAR

STARTCHAR space
ENCODING 32
SWIDTH 617 0
DWIDTH 9 0
BBX 0 0 0 0
BITMAP
ENDCHAR

STARTCHAR exclam
ENCODING 33
SWIDTH 617 0
DWIDTH 9 0
BBX 4 8 3 0
BITMAP
10
10
20
20
20
00
C0
C0
ENDCHAR

STARTCHAR quotedbl
ENCODING 34
SWIDTH 617 0
DWIDTH 9 0
BBX 4 4 4 4
BITMAP
50
F0
A0
A0
ENDCHAR

STARTCHAR numbersign
ENCODING 35
SWIDTH 617 0
DWIDTH 9 0
BBX 7 10 2 -1
BITMAP
14
14
14
7E
28
28
FC
50
50
50
ENDCHAR

STARTCHAR dollar
ENCODING 36
SWIDTH 617 0
DWIDTH 9 0
BBX 6 12 2 -2
BITMAP
08
08
3C
54
50
70
28
28
A8
F0
40
40
ENDCHAR

STARTCHAR percent
ENCODING 37
SWIDTH 617 0
DWIDTH 9 0
BBX 6 9 2 0
BITMAP
70
90
90
EC
30
DC
24
24
38
ENDCHAR

STARTCHAR ampersand
ENCODING 38
SWIDTH 617 0
DWIDTH 9 0
BBX 6 8 2 0
BITMAP
30
48
50
20
6C
98
90
E8
ENDCHAR

STARTCHAR apostrophe
ENCODING 39
SWIDTH 617 0
DWIDTH 9 0
BBX 3 4 4 6
BITMAP
20
60
C0
80
ENDCHAR

STARTCHAR parenleft
ENCODING 40
SWIDTH 617 0
DWIDTH 9 0
BBX 3 11 5 -1
BITMAP
20
20
40
40
80
80
80
80
80
C0
40
ENDCHAR

STARTCHAR parenright
ENCODING 41
SWIDTH 617 0
DWIDTH 9 0
BBX 4 11 2 -1
BITMAP
20
30
10
10
10
10
30
20
60
40
80
ENDCHAR

STARTCHAR asterisk
ENCODING 42
SWIDTH 617 0
DWIDTH 9 0
BBX 5 5 3 3
BITMAP
20
A8
F0
60
90
ENDCHAR

STARTCHAR plus
ENCODING 43
SWIDTH 617 0
DWIDTH 9 0
BBX 7 7 2 1
BITMAP
10
10
10
FE
10
10
10
ENDCHAR

STARTCHAR comma
ENCODING 44
SWIDTH 617 0
DWIDTH 9 0
BBX 3 4 2 -2
BITMAP
60
40
C0
80
ENDCHAR

STARTCHAR minus
ENCODING 45
SWIDTH 617 0
DWIDTH 9 0
BBX 7 1 2 4
BITMAP
FE
ENDCHAR

STARTCHAR period
ENCODING 46
SWIDTH 617 0
DWIDTH 9 0
BBX 2 2 3 0
BITMAP
C0
C0
ENDCHAR

STARTCHAR slash
ENCODING 47
SWIDTH 617 0
DWIDTH 9 0
BBX 8 11 1 -2
BITMAP
01
01
02
04
08
08
10
20
20
40
80
ENDCHAR

STARTCHAR 0
ENCODING 48
SWIDTH 617 0
DWIDTH 9 0
BBX 6 9 2 0
BITMAP
18
24
44
44
84
84
88
88
70
ENDCHAR

STARTCHAR 1
ENCODING 49
SWIDTH 617 0
DWIDTH 9 0
BBX 6 9 2 0
BITMAP
08
18
38
08
10
10
10
10
FC
ENDCHAR

STARTCHAR 2
ENCODING 50
SWIDTH 617 0
DWIDTH 9 0
BBX 7 9 1 0
BITMAP
1C
22
02
02
04
08
30
44
FC
ENDCHAR

STARTCHAR 3
ENCODING 51
SWIDTH 617 0
DWIDTH 9 0
BBX 6 9 2 0
BITMAP
38
44
04
04
38
08
08
88
70
ENDCHAR

STARTCHAR 4
ENCODING 52
SWIDTH 617 0
DWIDTH 9 0
BBX 6 9 2 0
BITMAP
04
0C
14
24
48
48
FC
10
38
ENDCHAR

STARTCHAR 5
ENCODING 53
SWIDTH 617 0
DWIDTH 9 0
BBX 8 9 1 0
BITMAP
1F
20
20
3C
26
02
02
04
78
ENDCHAR

STARTCHAR 6
ENCODING 54
SWIDTH 617 0
DWIDTH 9 0
BBX 7 9 2 0
BITMAP
1E
20
40
78
CC
84
84
88
70
ENDCHAR

STARTCHAR 7
ENCODING 55
SWIDTH 617 0
DWIDTH 9 0
BBX 6 9 3 0
BITMAP
FC
84
08
08
10
20
20
40
40
ENDCHAR

STARTCHAR 8
ENCODING 56
SWIDTH 617 0
DWIDTH 9 0
BBX 7 9 2 0
BITMAP
1C
62
42
44
38
44
84
88
70
ENDCHAR

STARTCHAR 9
ENCODING 57
SWIDTH 617 0
DWIDTH 9 0
BBX 7 9 2 0
BITMAP
1C
22
42
46
7C
04
08
18
E0
ENDCHAR

STARTCHAR colon
ENCODING 58
SWIDTH 617 0
DWIDTH 9 0
BBX 3 6 3 0
BITMAP
60
60
00
00
C0
C0
ENDCHAR

STARTCHAR semicolon
ENCODING 59
SWIDTH 617 0
DWIDTH 9 0
BBX 4 7 2 -1
BITMAP
30
30
00
20
20
40
40
ENDCHAR

STARTCHAR less
ENCODING 60
SWIDTH 617 0
DWIDTH 9 0
BBX 7 7 2 1
BITMAP
02
0C
30
C0
30
0C
02
ENDCHAR

STARTCHAR equal
ENCODING 61
SWIDTH 617 0
DWIDTH 9 0
BBX 7 3 2 3
BITMAP
FE
00
FE
ENDCHAR

STARTCHAR greater
ENCODING 62
SWIDTH 617 0
DWIDTH 9 0
BBX 7 7 2 1
BITMAP
80
60
18
06
18
60
80
ENDCHAR

STARTCHAR question
ENCODING 63
SWIDTH 617 0
DWIDTH 9 0
BBX 5 8 3 0
BITMAP
F8
88
08
30
40
00
C0
C0
ENDCHAR

STARTCHAR at
ENCODING 64
SWIDTH 617 0
DWIDTH 9 0
BBX 8 8 1 0
BITMAP
1E
21
4D
95
A5
BE
80
78
ENDCHAR

STARTCHAR A
ENCODING 65
SWIDTH 617 0
DWIDTH 9 0
BBX 9 8 0 0
BITMAP
1E00
0A00
0A00
1200
3F00
2100
4100
E380
ENDCHAR

STARTCHAR B
ENCODING 66
SWIDTH 617 0
DWIDTH 9 0
BBX 8 8 1 0
BITMAP
7F
21
23
3C
43
41
42
FC
ENDCHAR

STARTCHAR C
ENCODING 67
SWIDTH 617 0
DWIDTH 9 0
BBX 8 8 1 0
BITMAP
3D
62
42
80
80
80
82
7C
ENDCHAR

STARTCHAR D
ENCODING 68
SWIDTH 617 0
DWIDTH 9 0
BBX 8 8 1 0
BITMAP
7E
21
21
21
41
42
46
F8
ENDCHAR

STARTCHAR E
ENCODING 69
SWIDTH 617 0
DWIDTH 9 0
BBX 8 8 1 0
BITMAP
7F
21
44
78
48
42
42
FE
ENDCHAR

STARTCHAR F
ENCODING 70
SWIDTH 617 0
DWIDTH 9 0
BBX 9 8 0 0
BITMAP
3F80
1080
2200
3C00
2400
2000
4000
F000
ENDCHAR

STARTCHAR G
ENCODING 71
SWIDTH 617 0
DWIDTH 9 0
BBX 8 8 1 0
BITMAP
1F
21
41
80
8F
82
C2
3C
ENDCHAR

STARTCHAR H
ENCODING 72
SWIDTH 617 0
DWIDTH 9 0
BBX 8 8 1 0
BITMAP
33
21
21
3E
22
22
42
E6
ENDCHAR

STARTCHAR I
ENCODING 73
SWIDTH 617 0
DWIDTH 9 0
BBX 8 8 1 0
BITMAP
3F
08
08
08
10
10
10
FC
ENDCHAR

STARTCHAR J
ENCODING 74
SWIDTH 617 0
DWIDTH 9 0
BBX 7 8 2 0
BITMAP
3E
04
04
04
08
88
88
70
ENDCHAR

STARTCHAR K
ENCODING 75
SWIDTH 617 0
DWIDTH 9 0
BBX 8 8 1 0
BITMAP
3B
12
24
38
28
24
44
E3
ENDCHAR

STARTCHAR L
ENCODING 76
SWIDTH 617 0
DWIDTH 9 0
BBX 8 8 1 0
BITMAP
3C
10
10
20
20
21
21
FE
ENDCHAR

STARTCHAR M
ENCODING 77
SWIDTH 617 0
DWIDTH 9 0
BBX 9 8 0 0
BITMAP
3180
2980
2A80
2A80
2C80
4900
4100
E780
ENDCHAR

STARTCHAR N
ENCODING 78
SWIDTH 617 0
DWIDTH 9 0
BBX 9 8 0 0
BITMAP
3380
2900
2900
2900
2500
2600
4600
E200
ENDCHAR

STARTCHAR O
ENCODING 79
SWIDTH 617 0
DWIDTH 9 0
BBX 8 8 1 0
BITMAP
1E
21
41
81
81
82
44
78
ENDCHAR

STARTCHAR P
ENCODING 80
SWIDTH 617 0
DWIDTH 9 0
BBX 8 8 1 0
BITMAP
3E
11
11
11
3E
20
20
F0
ENDCHAR

STARTCHAR Q
ENCODING 81
SWIDTH 617 0
DWIDTH 9 0
BBX 8 10 1 -2
BITMAP
1E
21
41
81
81
82
C6
78
20
5E
ENDCHAR

STARTCHAR R
ENCODING 82
SWIDTH 617 0
DWIDTH 9 0
BBX 8 8 1 0
BITMAP
7F
21
23
3C
48
44
44
E7
ENDCHAR

STARTCHAR S
ENCODING 83
SWIDTH 617 0
DWIDTH 9 0
BBX 8 8 1 0
BITMAP
1F
21
20
38
06
82
C2
BC
ENDCHAR

STARTCHAR T
ENCODING 84
SWIDTH 617 0
DWIDTH 9 0
BBX 8 8 1 0
BITMAP
7F
89
91
10
10
10
10
78
ENDCHAR

STARTCHAR U
ENCODING 85
SWIDTH 617 0
DWIDTH 9 0
BBX 8 8 1 0
BITMAP
E7
42
42
82
84
84
8C
78
ENDCHAR

STARTCHAR V
ENCODING 86
SWIDTH 617 0
DWIDTH 9 0
BBX 8 8 1 0
BITMAP
E7
42
42
44
24
28
30
20
ENDCHAR

STARTCHAR W
ENCODING 87
SWIDTH 617 0
DWIDTH 9 0
BBX 8 8 1 0
BITMAP
E7
42
52
92
AA
AC
CC
84
ENDCHAR

STARTCHAR X
ENCODING 88
SWIDTH 617 0
DWIDTH 9 0
BBX 8 8 1 0
BITMAP
3B
12
0C
08
14
24
42
E7
ENDCHAR

STARTCHAR Y
ENCODING 89
SWIDTH 617 0
DWIDTH 9 0
BBX 8 8 1 0
BITMAP
E7
42
24
28
30
20
20
F8
ENDCHAR

STARTCHAR Z
ENCODING 90
SWIDTH 617 0
DWIDTH 9 0
BBX 8 8 1 0
BITMAP
3F
42
44
08
10
22
42
FE
ENDCHAR

STARTCHAR bracketleft
ENCODING 91
SWIDTH 617 0
DWIDTH 9 0
BBX 5 12 4 -2
BITMAP
38
20
20
20
40
40
40
40
40
80
80
E0
ENDCHAR

STARTCHAR backslash
ENCODING 92
SWIDTH 617 0
DWIDTH 9 0
BBX 4 12 3 -2
BITMAP
80
80
40
40
40
40
20
20
20
20
10
10
ENDCHAR

STARTCHAR bracketright
ENCODING 93
SWIDTH 617 0
DWIDTH 9 0
BBX 5 12 1 -2
BITMAP
38
08
08
08
10
10
10
10
10
20
20
E0
ENDCHAR

STARTCHAR asciicircum
ENCODING 94
SWIDTH 617 0
DWIDTH 9 0
BBX 7 6 2 2
BITMAP
30
28
68
44
C4
86
ENDCHAR

STARTCHAR underscore
ENCODING 95
SWIDTH 617 0
DWIDTH 9 0
BBX 9 1 0 -2
BITMAP
FF80
ENDCHAR

STARTCHAR grave
ENCODING 96
SWIDTH 617 0
DWIDTH 9 0
BBX 2 4 5 6
BITMAP
80
C0
C0
40
ENDCHAR

STARTCHAR a
ENCODING 97
SWIDTH 617 0
DWIDTH 9 0
BBX 7 6 1 0
BITMAP
3E
02
3E
C4
8C
76
ENDCHAR

STARTCHAR b
ENCODING 98
SWIDTH 617 0
DWIDTH 9 0
BBX 9 9 0 0
BITMAP
3000
1000
1000
1F00
3080
2080
2080
2100
DE00
ENDCHAR

STARTCHAR c
ENCODING 99
SWIDTH 617 0
DWIDTH 9 0
BBX 8 6 1 0
BITMAP
3F
62
80
80
82
7C
ENDCHAR

STARTCHAR d
ENCODING 100
SWIDTH 617 0
DWIDTH 9 0
BBX 8 8 1 0
BITMAP
03
01
3D
42
82
82
84
7B
ENDCHAR

STARTCHAR e
ENCODING 101
SWIDTH 617 0
DWIDTH 9 0
BBX 7 6 2 0
BITMAP
3C
42
FE
80
80
7C
ENDCHAR

STARTCHAR f
ENCODING 102
SWIDTH 617 0
DWIDTH 9 0
BBX 8 9 1 0
BITMAP
0F
10
10
7C
10
20
20
20
F8
ENDCHAR

STARTCHAR g
ENCODING 103
SWIDTH 617 0
DWIDTH 9 0
BBX 8 8 1 -2
BITMAP
3F
42
82
84
CC
74
04
78
ENDCHAR

STARTCHAR h
ENCODING 104
SWIDTH 617 0
DWIDTH 9 0
BBX 7 9 1 0
BITMAP
60
20
20
3E
42
42
42
42
EE
ENDCHAR

STARTCHAR i
ENCODING 105
SWIDTH 617 0
DWIDTH 9 0
BBX 6 10 1 0
BITMAP
04
04
00
00
38
10
10
10
10
FC
ENDCHAR

STARTCHAR j
ENCODING 106
SWIDTH 617 0
DWIDTH 9 0
BBX 7 12 0 -2
BITMAP
02
02
00
00
3E
04
04
04
04
08
08
F0
ENDCHAR

STARTCHAR k
ENCODING 107
SWIDTH 617 0
DWIDTH 9 0
BBX 8 9 1 0
BITMAP
30
20
20
27
2C
30
48
44
CE
ENDCHAR

STARTCHAR l
ENCODING 108
SWIDTH 617 0
DWIDTH 9 0
BBX 4 9 2 0
BITMAP
30
10
10
10
10
20
20
20
F0
ENDCHAR

STARTCHAR m
ENCODING 109
SWIDTH 617 0
DWIDTH 9 0
BBX 9 6 0 0
BITMAP
7F80
2480
2480
2480
4900
ED80
ENDCHAR

STARTCHAR n
ENCODING 110
SWIDTH 617 0
DWIDTH 9 0
BBX 8 6 0 0
BITMAP
3F
21
21
21
21
77
ENDCHAR

STARTCHAR o
ENCODING 111
SWIDTH 617 0
DWIDTH 9 0
BBX 8 6 1 0
BITMAP
3E
41
81
81
86
7C
ENDCHAR

STARTCHAR p
ENCODING 112
SWIDTH 617 0
DWIDTH 9 0
BBX 9 8 0 -2
BITMAP
6F00
1080
2080
2080
2300
5E00
4000
F000
ENDCHAR

STARTCHAR q
ENCODING 113
SWIDTH 617 0
DWIDTH 9 0
BBX 8 8 1 -2
BITMAP
3F
42
82
82
86
7C
04
1E
ENDCHAR

STARTCHAR r
ENCODING 114
SWIDTH 617 0
DWIDTH 9 0
BBX 8 6 1 0
BITMAP
6F
11
10
20
20
F8
ENDCHAR

STARTCHAR s
ENCODING 115
SWIDTH 617 0
DWIDTH 9 0
BBX 7 6 1 0
BITMAP
3E
42
7C
02
42
7C
ENDCHAR

STARTCHAR t
ENCODING 116
SWIDTH 617 0
DWIDTH 9 0
BBX 5 8 3 0
BITMAP
40
40
F8
40
80
80
80
F8
ENDCHAR

STARTCHAR u
ENCODING 117
SWIDTH 617 0
DWIDTH 9 0
BBX 6 6 2 0
BITMAP
CC
84
84
84
88
7C
ENDCHAR

STARTCHAR v
ENCODING 118
SWIDTH 617 0
DWIDTH 9 0
BBX 8 6 1 0
BITMAP
E7
42
24
28
30
30
ENDCHAR

STARTCHAR w
ENCODING 119
SWIDTH 617 0
DWIDTH 9 0
BBX 8 6 1 0
BITMAP
E7
4A
5A
5C
6C
48
ENDCHAR

STARTCHAR x
ENCODING 120
SWIDTH 617 0
DWIDTH 9 0
BBX 9 6 0 0
BITMAP
7380
1200
0C00
1400
2200
E700
ENDCHAR

STARTCHAR y
ENCODING 121
SWIDTH 617 0
DWIDTH 9 0
BBX 7 9 2 -3
BITMAP
EE
44
84
84
88
78
08
90
E0
ENDCHAR

STARTCHAR z
ENCODING 122
SWIDTH 617 0
DWIDTH 9 0
BBX 7 6 2 0
BITMAP
7E
44
18
20
44
FC
ENDCHAR

STARTCHAR braceleft
ENCODING 123
SWIDTH 617 0
DWIDTH 9 0
BBX 5 12 4 -2
BITMAP
18
20
20
20
20
C0
40
40
80
80
80
60
ENDCHAR

STARTCHAR bar
ENCODING 124
SWIDTH 617 0
DWIDTH 9 0
BBX 2 12 5 -2
BITMAP
40
40
40
40
40
40
80
80
80
80
80
80
ENDCHAR

STARTCHAR braceright
ENCODING 125
SWIDTH 617 0
DWIDTH 9 0
BBX 4 12 2 -2
BITMAP
20
10
10
10
20
20
30
20
20
20
40
80
ENDCHAR

STARTCHAR asciitilde
ENCODING 126
SWIDTH 617 0
DWIDTH 9 0
BBX 6 2 2 3
BITMAP
64
98
ENDCHAR

STARTCHAR nobreakspace
ENCODING 160
SWIDTH 617 0
DWIDTH 9 0
BBX 0 0 0 0
BITMAP
ENDCHAR

STARTCHAR exclamdown
ENCODING 161
SWIDTH 617 0
DWIDTH 9 0
BBX 3 8 4 -2
BITMAP
60
60
00
40
40
40
80
80
ENDCHAR

STARTCHAR cent
ENCODING 162
SWIDTH 617 0
DWIDTH 9 0
BBX 7 10 2 -1
BITMAP
08
08
3A
7C
90
90
DC
70
20
20
ENDCHAR

STARTCHAR sterling
ENCODING 163
SWIDTH 617 0
DWIDTH 9 0
BBX 7 9 2 0
BITMAP
1E
22
40
40
FC
20
20
40
FC
ENDCHAR

STARTCHAR currency
ENCODING 164
SWIDTH 617 0
DWIDTH 9 0
BBX 7 6 2 1
BITMAP
FC
4C
44
44
48
FC
ENDCHAR

STARTCHAR yen
ENCODING 165
SWIDTH 617 0
DWIDTH 9 0
BBX 7 8 2 0
BITMAP
E6
44
28
10
7C
F8
20
F0
ENDCHAR

STARTCHAR brokenbar
ENCODING 166
SWIDTH 617 0
DWIDTH 9 0
BBX 1 12 5 -2
BITMAP
80
80
80
80
80
00
00
80
80
80
80
80
ENDCHAR

STARTCHAR section
ENCODING 167
SWIDTH 617 0
DWIDTH 9 0
BBX 7 9 2 -1
BITMAP
1C
22
20
58
4C
24
18
90
F0
ENDCHAR

STARTCHAR diaeresis
ENCODING 168
SWIDTH 617 0
DWIDTH 9 0
BBX 3 2 5 8
BITMAP
A0
A0
ENDCHAR

STARTCHAR copyright
ENCODING 169
SWIDTH 617 0
DWIDTH 9 0
BBX 8 8 1 0
BITMAP
1C
22
4D
95
A1
A5
5A
3C
ENDCHAR

STARTCHAR ordfeminine
ENCODING 170
SWIDTH 617 0
DWIDTH 9 0
BBX 4 4 3 4
BITMAP
30
70
70
F0
ENDCHAR

STARTCHAR guillemotleft
ENCODING 171
SWIDTH 617 0
DWIDTH 9 0
BBX 6 6 2 0
BITMAP
14
28
F0
A0
50
28
ENDCHAR

STARTCHAR notsign
ENCODING 172
SWIDTH 617 0
DWIDTH 9 0
BBX 6 4 2 2
BITMAP
FC
04
04
04
ENDCHAR

STARTCHAR hyphen
ENCODING 173
SWIDTH 617 0
DWIDTH 9 0
BBX 3 1 4 4
BITMAP
E0
ENDCHAR

STARTCHAR registered
ENCODING 174
SWIDTH 617 0
DWIDTH 9 0
BBX 8 8 1 0
BITMAP
3C
5E
95
99
A5
A5
42
3C
ENDCHAR

STARTCHAR macron
ENCODING 175
SWIDTH 617 0
DWIDTH 9 0
BBX 5 1 4 8
BITMAP
F8
ENDCHAR

STARTCHAR degree
ENCODING 176
SWIDTH 617 0
DWIDTH 9 0
BBX 5 5 3 4
BITMAP
70
88
88
D8
70
ENDCHAR

STARTCHAR plusminus
ENCODING 177
SWIDTH 617 0
DWIDTH 9 0
BBX 7 8 2 0
BITMAP
10
10
FE
10
10
10
00
FE
ENDCHAR

STARTCHAR twosuperior
ENCODING 178
SWIDTH 617 0
DWIDTH 9 0
BBX 5 6 3 3
BITMAP
30
08
10
20
50
F0
ENDCHAR

STARTCHAR threesuperior
ENCODING 179
SWIDTH 617 0
DWIDTH 9 0
BBX 4 5 3 4
BITMAP
70
10
30
10
F0
ENDCHAR

STARTCHAR acute
ENCODING 180
SWIDTH 617 0
DWIDTH 9 0
BBX 3 2 5 7
BITMAP
C0
80
ENDCHAR

STARTCHAR mu
ENCODING 181
SWIDTH 617 0
DWIDTH 9 0
BBX 7 8 1 -2
BITMAP
C6
42
42
44
44
BE
80
80
ENDCHAR

STARTCHAR paragraph
ENCODING 182
SWIDTH 617 0
DWIDTH 9 0
BBX 6 9 3 -1
BITMAP
7C
A8
A8
E8
48
50
50
50
F0
ENDCHAR

STARTCHAR periodcentered
ENCODING 183
SWIDTH 617 0
DWIDTH 9 0
BBX 2 2 4 4
BITMAP
C0
C0
ENDCHAR

STARTCHAR cedilla
ENCODING 184
SWIDTH 617 0
DWIDTH 9 0
BBX 3 3 3 -2
BITMAP
40
60
E0
ENDCHAR

STARTCHAR onesuperior
ENCODING 185
SWIDTH 617 0
DWIDTH 9 0
BBX 4 6 3 3
BITMAP
20
20
20
20
20
F0
ENDCHAR

STARTCHAR masculine
ENCODING 186
SWIDTH 617 0
DWIDTH 9 0
BBX 5 4 3 4
BITMAP
38
48
70
F8
ENDCHAR

STARTCHAR guillemotright
ENCODING 187
SWIDTH 617 0
DWIDTH 9 0
BBX 6 6 2 0
BITMAP
50
28
14
3C
50
A0
ENDCHAR

STARTCHAR onequarter
ENCODING 188
SWIDTH 617 0
DWIDTH 9 0
BBX 9 10 0 -1
BITMAP
3000
1080
1100
2200
7500
0B00
1500
2F00
4200
8200
ENDCHAR

STARTCHAR onehalf
ENCODING 189
SWIDTH 617 0
DWIDTH 9 0
BBX 9 10 0 -1
BITMAP
1000
3080
1100
1200
2400
7B00
1080
2100
4200
8700
ENDCHAR

STARTCHAR threequarters
ENCODING 190
SWIDTH 617 0
DWIDTH 9 0
BBX 8 11 1 -2
BITMAP
70
10
31
12
E4
09
13
25
4F
82
02
ENDCHAR

STARTCHAR questiondown
ENCODING 191
SWIDTH 617 0
DWIDTH 9 0
BBX 5 8 2 -2
BITMAP
18
18
00
30
40
80
88
78
ENDCHAR

STARTCHAR Agrave
ENCODING 192
SWIDTH 617 0
DWIDTH 9 0
BBX 9 11 0 0
BITMAP
0200
0000
0000
1E00
0A00
0900
0900
1F00
2100
4100
E380
ENDCHAR

STARTCHAR Aacute
ENCODING 193
SWIDTH 617 0
DWIDTH 9 0
BBX 9 11 0 0
BITMAP
0600
0400
0000
1E00
0A00
0900
0900
1F00
2100
4100
E380
ENDCHAR

STARTCHAR Acircumflex
ENCODING 194
SWIDTH 617 0
DWIDTH 9 0
BBX 9 11 0 0
BITMAP
0600
0900
0000
1E00
0A00
0900
0900
1F00
2100
4100
E380
ENDCHAR

STARTCHAR Atilde
ENCODING 195
SWIDTH 617 0
DWIDTH 9 0
BBX 9 11 0 0
BITMAP
0780
0100
0000
1E00
0A00
0900
0900
1F00
2100
4100
E380
ENDCHAR

STARTCHAR Adiaeresis
ENCODING 196
SWIDTH 617 0
DWIDTH 9 0
BBX 9 13 0 0
BITMAP
0500
0500
0500
0000
0000
1E00
0A00
0900
0900
1F00
2100
4100
E380
ENDCHAR

STARTCHAR Aring
ENCODING 197
SWIDTH 617 0
DWIDTH 9 0
BBX 9 11 0 0
BITMAP
0600
0600
0000
1E00
0A00
0900
0900
1F00
2100
4100
E380
ENDCHAR

STARTCHAR AE
ENCODING 198
SWIDTH 617 0
DWIDTH 9 0
BBX 9 8 0 0
BITMAP
0F80
0C80
0D80
1600
3600
3A00
4500
EF00
ENDCHAR

STARTCHAR Ccedilla
ENCODING 199
SWIDTH 617 0
DWIDTH 9 0
BBX 8 10 1 -2
BITMAP
1F
63
42
80
80
80
82
7C
30
70
ENDCHAR

STARTCHAR Egrave
ENCODING 200
SWIDTH 617 0
DWIDTH 9 0
BBX 8 11 1 0
BITMAP
04
00
00
7F
21
44
78
48
42
42
FE
ENDCHAR

STARTCHAR Eacute
ENCODING 201
SWIDTH 617 0
DWIDTH 9 0
BBX 8 11 1 0
BITMAP
18
10
00
7F
21
44
78
48
42
42
FE
ENDCHAR

STARTCHAR Ecircumflex
ENCODING 202
SWIDTH 617 0
DWIDTH 9 0
BBX 8 11 1 0
BITMAP
0C
12
00
7F
21
44
78
48
42
42
FE
ENDCHAR

STARTCHAR Ediaeresis
ENCODING 203
SWIDTH 617 0
DWIDTH 9 0
BBX 8 12 1 0
BITMAP
14
14
00
00
7F
21
44
78
48
42
42
FE
ENDCHAR

STARTCHAR Igrave
ENCODING 204
SWIDTH 617 0
DWIDTH 9 0
BBX 8 11 1 0
BITMAP
04
00
00
3F
08
08
08
10
10
10
FC
ENDCHAR

STARTCHAR Iacute
ENCODING 205
SWIDTH 617 0
DWIDTH 9 0
BBX 8 11 1 0
BITMAP
0C
08
00
3F
08
08
08
10
10
10
FC
ENDCHAR

STARTCHAR Icircumflex
ENCODING 206
SWIDTH 617 0
DWIDTH 9 0
BBX 8 11 1 0
BITMAP
06
09
00
3F
08
08
08
10
10
10
FC
ENDCHAR

STARTCHAR Idiaeresis
ENCODING 207
SWIDTH 617 0
DWIDTH 9 0
BBX 8 12 1 0
BITMAP
0A
0A
00
00
3F
08
08
08
10
10
10
FC
ENDCHAR

STARTCHAR ETH
ENCODING 208
SWIDTH 617 0
DWIDTH 9 0
BBX 8 8 1 0
BITMAP
7E
21
21
F9
41
42
46
F8
ENDCHAR

STARTCHAR Ntilde
ENCODING 209
SWIDTH 617 0
DWIDTH 9 0
BBX 9 11 0 0
BITMAP
0780
0100
0000
3380
2900
2900
2900
2500
2600
4600
F200
ENDCHAR

STARTCHAR Ograve
ENCODING 210
SWIDTH 617 0
DWIDTH 9 0
BBX 8 11 1 0
BITMAP
02
00
00
1E
21
41
81
81
82
46
78
ENDCHAR

STARTCHAR Oacute
ENCODING 211
SWIDTH 617 0
DWIDTH 9 0
BBX 8 11 1 0
BITMAP
0C
08
00
1E
21
41
81
81
82
46
78
ENDCHAR

STARTCHAR Ocircumflex
ENCODING 212
SWIDTH 617 0
DWIDTH 9 0
BBX 8 11 1 0
BITMAP
06
09
00
1E
21
41
81
81
82
46
78
ENDCHAR

STARTCHAR Otilde
ENCODING 213
SWIDTH 617 0
DWIDTH 9 0
BBX 8 11 1 0
BITMAP
0F
02
00
1E
21
41
81
81
82
46
78
ENDCHAR

STARTCHAR Odiaeresis
ENCODING 214
SWIDTH 617 0
DWIDTH 9 0
BBX 8 12 1 0
BITMAP
0A
0A
00
00
1E
21
41
81
81
82
46
78
ENDCHAR

STARTCHAR multiply
ENCODING 215
SWIDTH 617 0
DWIDTH 9 0
BBX 5 5 3 2
BITMAP
88
50
20
50
88
ENDCHAR

STARTCHAR Ooblique
ENCODING 216
SWIDTH 617 0
DWIDTH 9 0
BBX 8 8 1 0
BITMAP
1F
23
45
89
91
A2
C6
F8
ENDCHAR

STARTCHAR Ugrave
ENCODING 217
SWIDTH 617 0
DWIDTH 9 0
BBX 8 11 1 0
BITMAP
04
00
00
E7
42
42
82
84
84
8C
78
ENDCHAR

STARTCHAR Uacute
ENCODING 218
SWIDTH 617 0
DWIDTH 9 0
BBX 8 11 1 0
BITMAP
18
10
00
E7
42
42
82
84
84
8C
78
ENDCHAR

STARTCHAR Ucircumflex
ENCODING 219
SWIDTH 617 0
DWIDTH 9 0
BBX 8 11 1 0
BITMAP
0C
12
00
E7
42
42
82
84
84
8C
78
ENDCHAR

STARTCHAR Udiaeresis
ENCODING 220
SWIDTH 617 0
DWIDTH 9 0
BBX 8 12 1 0
BITMAP
14
14
00
00
E7
42
42
82
84
84
8C
78
ENDCHAR

STARTCHAR Yacute
ENCODING 221
SWIDTH 617 0
DWIDTH 9 0
BBX 8 11 1 0
BITMAP
18
10
00
E7
42
24
28
30
20
20
F8
ENDCHAR

STARTCHAR THORN
ENCODING 222
SWIDTH 617 0
DWIDTH 9 0
BBX 8 8 1 0
BITMAP
3C
1E
21
21
21
3E
20
F0
ENDCHAR

STARTCHAR ssharp
ENCODING 223
SWIDTH 617 0
DWIDTH 9 0
BBX 7 9 1 0
BITMAP
1E
22
22
2C
2C
42
42
46
DC
ENDCHAR

STARTCHAR agrave
ENCODING 224
SWIDTH 617 0
DWIDTH 9 0
BBX 7 9 1 0
BITMAP
04
00
00
3E
02
3E
C4
8C
76
ENDCHAR

STARTCHAR aacute
ENCODING 225
SWIDTH 617 0
DWIDTH 9 0
BBX 7 9 1 0
BITMAP
0C
08
00
3E
02
3E
C4
8C
76
ENDCHAR

STARTCHAR acircumflex
ENCODING 226
SWIDTH 617 0
DWIDTH 9 0
BBX 7 9 1 0
BITMAP
0C
12
00
3E
02
3E
C4
8C
76
ENDCHAR

STARTCHAR atilde
ENCODING 227
SWIDTH 617 0
DWIDTH 9 0
BBX 8 9 1 0
BITMAP
0F
02
00
3E
02
3E
C4
8C
76
ENDCHAR

STARTCHAR adiaeresis
ENCODING 228
SWIDTH 617 0
DWIDTH 9 0
BBX 7 10 1 0
BITMAP
0A
0A
00
00
3E
02
3E
C4
8C
76
ENDCHAR

STARTCHAR aring
ENCODING 229
SWIDTH 617 0
DWIDTH 9 0
BBX 7 10 1 0
BITMAP
0C
0C
0C
00
3E
02
3E
C4
8C
76
ENDCHAR

STARTCHAR ae
ENCODING 230
SWIDTH 617 0
DWIDTH 9 0
BBX 8 6 1 0
BITMAP
7F
09
7F
90
90
FE
ENDCHAR

STARTCHAR ccedilla
ENCODING 231
SWIDTH 617 0
DWIDTH 9 0
BBX 8 8 1 -2
BITMAP
3F
62
80
80
82
7C
10
30
ENDCHAR

STARTCHAR egrave
ENCODING 232
SWIDTH 617 0
DWIDTH 9 0
BBX 7 9 2 0
BITMAP
08
00
00
3C
42
FE
80
80
7C
ENDCHAR

STARTCHAR eacute
ENCODING 233
SWIDTH 617 0
DWIDTH 9 0
BBX 7 9 2 0
BITMAP
18
10
00
3C
42
FE
80
80
7C
ENDCHAR

STARTCHAR ecircumflex
ENCODING 234
SWIDTH 617 0
DWIDTH 9 0
BBX 7 9 2 0
BITMAP
18
24
00
3C
42
FE
80
80
7C
ENDCHAR

STARTCHAR ediaeresis
ENCODING 235
SWIDTH 617 0
DWIDTH 9 0
BBX 7 10 2 0
BITMAP
14
14
00
00
3C
42
FE
80
80
7C
ENDCHAR

STARTCHAR igrave
ENCODING 236
SWIDTH 617 0
DWIDTH 9 0
BBX 6 9 1 0
BITMAP
04
00
00
38
10
10
10
10
FC
ENDCHAR

STARTCHAR iacute
ENCODING 237
SWIDTH 617 0
DWIDTH 9 0
BBX 7 9 1 0
BITMAP
0C
08
00
38
10
10
10
10
FC
ENDCHAR

STARTCHAR icircumflex
ENCODING 238
SWIDTH 617 0
DWIDTH 9 0
BBX 7 9 1 0
BITMAP
0C
12
00
38
10
10
10
10
FC
ENDCHAR

STARTCHAR idiaeresis
ENCODING 239
SWIDTH 617 0
DWIDTH 9 0
BBX 7 10 1 0
BITMAP
0A
0A
00
00
38
10
10
10
10
FC
ENDCHAR

STARTCHAR eth
ENCODING 240
SWIDTH 617 0
DWIDTH 9 0
BBX 8 10 1 0
BITMAP
14
0C
16
02
3F
41
81
81
C6
7C
ENDCHAR

STARTCHAR ntilde
ENCODING 241
SWIDTH 617 0
DWIDTH 9 0
BBX 8 9 1 0
BITMAP
0F
02
00
7E
42
42
42
42
EE
ENDCHAR

STARTCHAR ograve
ENCODING 242
SWIDTH 617 0
DWIDTH 9 0
BBX 8 9 1 0
BITMAP
04
00
00
3E
41
81
81
86
7C
ENDCHAR

STARTCHAR oacute
ENCODING 243
SWIDTH 617 0
DWIDTH 9 0
BBX 8 9 1 0
BITMAP
0C
08
00
3E
41
81
81
86
7C
ENDCHAR

STARTCHAR ocircumflex
ENCODING 244
SWIDTH 617 0
DWIDTH 9 0
BBX 8 9 1 0
BITMAP
0C
12
00
3E
41
81
81
86
7C
ENDCHAR

STARTCHAR otilde
ENCODING 245
SWIDTH 617 0
DWIDTH 9 0
BBX 8 9 1 0
BITMAP
0F
02
00
3E
41
81
81
86
7C
ENDCHAR

STARTCHAR odiaeresis
ENCODING 246
SWIDTH 617 0
DWIDTH 9 0
BBX 8 10 1 0
BITMAP
0A
0A
00
00
3E
41
81
81
86
7C
ENDCHAR

STARTCHAR division
ENCODING 247
SWIDTH 617 0
DWIDTH 9 0
BBX 7 7 2 1
BITMAP
10
00
00
FE
00
00
10
ENDCHAR

STARTCHAR oslash
ENCODING 248
SWIDTH 617 0
DWIDTH 9 0
BBX 8 6 1 0
BITMAP
3F
45
89
B1
C6
BC
ENDCHAR

STARTCHAR ugrave
ENCODING 249
SWIDTH 617 0
DWIDTH 9 0
BBX 6 9 2 0
BITMAP
08
00
00
CC
84
84
84
88
7C
ENDCHAR

STARTCHAR uacute
ENCODING 250
SWIDTH 617 0
DWIDTH 9 0
BBX 6 9 2 0
BITMAP
18
10
00
CC
84
84
84
88
7C
ENDCHAR

STARTCHAR ucircumflex
ENCODING 251
SWIDTH 617 0
DWIDTH 9 0
BBX 6 9 2 0
BITMAP
18
24
00
CC
84
84
84
88
7C
ENDCHAR

STARTCHAR udiaeresis
ENCODING 252
SWIDTH 617 0
DWIDTH 9 0
BBX 6 10 2 0
BITMAP
14
14
00
00
CC
84
84
84
88
7C
ENDCHAR

STARTCHAR yacute
ENCODING 253
SWIDTH 617 0
DWIDTH 9 0
BBX 7 12 2 -3
BITMAP
18
10
00
EE
44
84
84
88
78
08
90
E0
ENDCHAR

STARTCHAR thorn
ENCODING 254
SWIDTH 617 0
DWIDTH 9 0
BBX 9 11 0 -2
BITMAP
3000
1000
1000
1F00
3080
2080
2080
2300
5E00
4000
F000
ENDCHAR

STARTCHAR ydiaeresis
ENCODING 255
SWIDTH 617 0
DWIDTH 9 0
BBX 7 13 2 -3
BITMAP
14
14
00
00
EE
44
84
84
88
78
08
90
E0
ENDCHAR

ENDFONT
