/* XPM */
static char const * diagnosticsIcon_xpm[] = {
"64 64 61 1",
" 	c #1883D7",
".	c #5C3A37",
"+	c #C35A50",
"@	c #F9F9F9",
"#	c #FFD7E5",
"$	c #EDEDED",
"%	c #F0F0F0",
"&	c #600000",
"*	c #F0F0AB",
"=	c #000000",
"-	c #3687CE",
";	c #F0CE87",
">	c #60ABF0",
",	c #F0AB60",
"'	c #FFFFFF",
")	c #66B6FF",
"!	c #FFDB90",
"~	c #3A0000",
"{	c #FFFFB6",
"]	c #90DBFF",
"^	c #707070",
"/	c #FCFCFC",
"(	c #E1E1E1",
"_	c #00398E",
":	c #FCB465",
"<	c #650000",
"[	c #390000",
"}	c #000065",
"|	c #808080",
"1	c #BFDAFC",
"2	c #0078D7",
"3	c #B6FFFF",
"4	c #0078E4",
"5	c #B6A7D7",
"6	c #DBFFFF",
"7	c #DBBEDE",
"8	c #F5F5F5",
"9	c #F5F5D2",
"0	c #620000",
"a	c #F5F5AF",
"b	c #388AD2",
"c	c #AF6200",
"d	c #000062",
"e	c #F5AF62",
"f	c #0066B6",
"g	c #660000",
"h	c #003A90",
"i	c #62AFF5",
"j	c #000038",
"k	c #8AD2F5",
"l	c #0062AF",
"m	c #8A3800",
"n	c #D2F5F5",
"o	c #3A90DB",
"p	c #00388A",
"q	c #D28A38",
"r	c #003862",
"s	c #380000",
"t	c #8E3900",
"u	c #00003A",
"v	c #DDDDDD",
"                                                             .++",
" @     #                                                     .++",
" $                                                           .++",
"%%%%%%%%%%%%%%%%%%%%%%%%%%%%%%%%%%%%%%%%%%%%%%%%%%%%%%%%%%%%%%%%",
"&*%&=%-%;%;&%%>%%%-&%*,%&=;%%%%%%%%%%%%%%%%%%%%%%%%%%%%%%%%%%%%%",
"%%%%%%%%%%%%%%%%%%%%%%%%%%%%%%%%%%%%%%%%%%%%%%%%%%%%%%%%%%%%%%%%",
"''''''''''''''''''''''''''''''''''''''''''''''''''''''''''''''''",
"))!=~{]!~{''='''''''''''''''''''''''''''''''''''''''''''''''''''",
"''''''''''''''''''''''''''''''''''''''''''''''''''''''''''''''''",
"''''''''''''''''''''''''''''''''''''''''''''''''''''''''''''''''",
"''''''''''''''''''''''''''''''''''''''''''''''''''''''''''''''''",
"''''''''''''''''''''''''''''''''''''''''''''''''''''''''''''''''",
"''''''''''''''''''''''''''''''''''''''''''''''''''''''''''''''''",
"''''''''''''''''''''''''''''''''''''''''''''''''''''''''''''''''",
"''''''''''''''''''''''''''''''''''''''''''''''''''''''''''''''''",
"''''''''''''''''''''''''''''''''''''''''''''''''''''''''''''''''",
"''''''''''''''''''''''''''''''''''''''''''''''''''''''''''''''''",
"''''''''''''''''''''''''''''''''''''''''''''''''''''''''''''''''",
"''''''''''''''''''''''''''''''''''''''''''''''''''''''''''''''''",
"''''''''''''''''''''''''''''''''''''''''''''''''''''''''''''''''",
"''''''''''''''''''''''''''''''''''''''''''''''''''''''''''''''''",
"''''''''''''''''''''''''''''''''''''''''''''''''''''''''''''''''",
"''''''''''''''''''''''''''''''''''''''''''''''''''''''''''''''''",
"^^^^^^^^^^^^^^^^^^^^^^^^^^^^^^^^^^^^^^^^^^^^^^^^^^^^^^^^^^^^^^^^",
"/////////////////(/////////////////////////////////////////////'",
"/////=_/////_:/<_([=[=}////////////////////////////////////////'",
"/////////////////(/////////////////////////////////////////////|",
"112222222222222222222222222222222222222222222222222222222222222|",
"1132342'4'222562223'4222274722222222222222222222222222222222222|",
"112222222222222222222222222222222222222222222222222222222222222|",
"=/8888888888988888=88888888888888888888888888888888888888888888|",
"</080a8bc888abd88808e88888ab88888888888888888888888888888888888|",
"(('''''''''''''''''''''''''''''''''''''''''''''''''''''''''''''|",
"//'''''''f''''''''g''''''''''''''''''''''''''''''''''''''''''''|",
"//''''''h''''''''''''''''''''''''''''''''''''''''''''''''''''''|",
"//8888888888888888888888888888888888888888888888888888888888888|",
"</0ija8j8k888jlm880ia98k8naii8888888888888888888888888888888888|",
"//8a8888i888888888888=88888888888888888888888888888888888888888|",
"//'''''''''''''''''''''''''''''''''''''''''''''''''''''''''''''|",
"//g'g{'={=''=)~'o'g={''''o{o'''''''''''''''''''''''''''''''''''|",
"//'''''''''''''''''''''''''''''''''''''''''''''''''''''''''''''|",
"//8888888j88=888k8b8888888888l8880888888=8888888b88888888888888|",
"_/080a8bcp888bd8n888888a88qa8b80808a8i888888e88rbb888kbsbb0s8k8|",
"(('''''''''''''''''''''''''''''''''''''''''''''''''''''''''''''|",
"//''''''''''3'''''g''''''''''''''''''''''''''''''''''''''''''''|",
"//''''''h''''''''''''''''''''''''''''''''''''''''''''''''''''''|",
"//8888888888888888888888888888888888888888888888888888888888888|",
"=/0ija8j88888jlm880ia98k8naii8888888888888888888888888888888888|",
"//8a8888i888888888888=88888888888888888888888888888888888888888|",
"//'''''''''''''''''''''''''''''''''''''''''''''''''''''''''''''|",
"t/g'g{'={u''')~']'g={''''o{o'''''''''''''''''''''''''''''''''''|",
"//'''''''''''''''''''''''''''''''''''''''''''''''''''''''''''''|",
"/=8888888888=88888=88888888888888888888888888888888888888888888|",
"//080a8bcb888bd88808e88888ab88888888888888888888888888888888888|",
"%%'''''''''''''''''''''''''''''''''''''''''''''''''''''''''''''|",
"%%'''''''''''''''''''''''''''''''''''''''''''''''''''''''''''''|",
"%%'''''''''''''''''''''''''''''''''''''''''''''''''''''''''''''|",
"%%'''''''''''''''''''''''''''''''''''''''''''''''''''''''''''''|",
"%%'''''''''''''''''''''''''''''''''''''''''''''''''''''''''''''|",
"%%'''''''''''''''''''''''''''''''''''''''''''''''''''''''''''''|",
"%%'''''''''''''''''''''''''''''''''''''''''''''''''''''''''''''|",
"%%''''''''''''''''''''''''''''''''''''''''''''''''''''''''''''''",
"%%''''''''''''''''''''''''''''''''''''''''''''''''''''''''''''''",
"^vvvv''''''''''''''''''''''''''''''''''''''''''''''''''''''''''%"};
