/* XPM */
static char const *getReplace_xpm[] = {
/* columns rows colors chars-per-pixel */
"60 15 2 1",
"  c Gray0",
". c #ededf2f25c5c",
/* pixels */
"............................................................",
"............................................................",
"............................................................",
".      ................  .        ...............  ....    .",
".  ...  ...............  ....  ..................  ...  ..  ",
".  ...  ..    ..  .  ..  ....  ....    ..  ..  .    ..  ..  ",
".  ...  .  ..  .   .  .  ....  ...  ..  .  ..  ..  ......  .",
".      ..  ..  .  ..  .  ....  ...  ..  ..    ...  .....  ..",
".  ..  ..      .  ..  .  ....  ...      ...  ....  .....  ..",
".  ...  .  .....  ..  .  ....  ...  ......    ...  .........",
".  ...  .  ..  .   .  .  ....  ...  ..  .  ..  ..  . ...  ..",
".  ...  ..    ..  .  ..  ....  ....    ..  ..  ...  ....  ..",
"................  ..........................................",
"................  ..........................................",
"................  .........................................."
};
