/* XPM */
static char const * icon_xpm[] = {
"32 32 8 1",
" 	c None",
".	c #3AAFAF",
"+	c #418C8C",
"@	c #416868",
"#	c #000000",
"$	c #848484",
"%	c #C9C9C9",
"&	c #565656",
"                                ",
"                     ....       ",
"                   ....+..      ",
"                  ..+.@@..      ",
"                 ...+@@++.      ",
"                ..+.@@...       ",
"               ...+@@...        ",
"              ..+.@@++.         ",
"             ...+@@....         ",
"            ...+@@++..          ",
"            .+.+@....           ",
"           ..+.@++..            ",
"           ..+@....             ",
"           ..@@...              ",
"          ..@@++.               ",
"          ..@...                ",
"          .@...                 ",
"          @@.                   ",
"          @                     ",
"       ##@@#                    ",
"     ##$%@%%##                  ",
"    #&&$@@$$%%#                 ",
"    ###&@&&$###                 ",
"    #&$#####$%#                 ",
"    #&$$$$$$$%#                 ",
"   #&$$$$$$$$$%#                ",
"   #&$$$$$$$$$%#                ",
"  #&$$$$$$$$$$%%#               ",
"  #&&$$$$$$$$%%%#               ",
"   ##&&&$$$%%%##                ",
"     #########                  ",
"                                "};
