/* XPM */
static char const *replace_xpm[] = {
/* columns rows colors chars-per-pixel */
"60 15 2 1",
"  c Gray0",
". c #4343d3d30000",
/* pixels */
"............................................................",
"............................................................",
"............................................................",
".......      ................  .............................",
".......  ...  ...............  .............................",
".......  ...  ..    ..  .  ..  ..    ...    ...    .........",
".......  ...  .  ..  .   .  .  .  ..  .  ..  .  ..  ........",
".......      ..  ..  .  ..  .  .....  .  .....  ..  ........",
".......  ..  ..      .  ..  .  ..     .  .....      ........",
".......  ...  .  .....  ..  .  .  ..  .  .....  ............",
".......  ...  .  ..  .   .  .  .  ..  .  ..  .  ..  ........",
".......  ...  ..    ..  .  ..  ..   .  .    ...    .........",
"......................  ....................................",
"......................  ....................................",
"......................  ...................................."
};
