/* XPM */
static char const *search_xpm[] = {
/* columns rows colors chars-per-pixel */
"40 15 2 1",
"  c Gray0",
". c #8989e3e3f9f9",
/* pixels */
"........................................",
"........................................",
"........................................",
".     ............................  ....",
"  ...  ...........................  ....",
"  ...  ..    ...    ..  .  .    ..  .  .",
".   ....  ..  .  ..  .       ..  .   .  ",
"...   ..  ..  .....  .   ..  .....  ..  ",
"....   .      ..     .  ...  .....  ..  ",
"  ...  .  .....  ..  .  ...  .....  ..  ",
"  ...  .  ..  .  ..  .  ...  ..  .  ..  ",
".     ...    ...   .    ....    ..  ..  ",
"........................................",
"........................................",
"........................................"
};
